<svg width="1045" height="217" viewBox="0 0 1045 217" fill="none" xmlns="http://www.w3.org/2000/svg">
<path d="M77.1138 36.366H88.1085V142.092H77.1138V36.366ZM11.1454 142.092H0V36.366H11.1454V142.092ZM78.1681 93.3072H9.94044V83.4897H78.1681V93.3072Z" fill="black"/>
<path d="M105.651 142.092L153.847 36.366H164.842L213.038 142.092H201.291L157.01 42.8606H161.529L117.249 142.092H105.651ZM124.629 113.848L127.942 104.786H189.241L192.555 113.848H124.629Z" fill="black"/>
<path d="M230.479 142.092V36.366H239.666L312.412 128.197H307.592V36.366H318.587V142.092H309.4L236.805 50.2614H241.624V142.092H230.479Z" fill="black"/>
<path d="M352.998 142.092V36.366H395.922C407.168 36.366 417.006 38.6315 425.44 43.1627C433.975 47.5931 440.601 53.7857 445.32 61.7403C450.04 69.695 452.399 78.8579 452.399 89.2292C452.399 99.6004 450.04 108.763 445.32 116.718C440.601 124.673 433.975 130.916 425.44 135.447C417.006 139.877 407.168 142.092 395.922 142.092H352.998ZM364.143 132.426H395.32C404.658 132.426 412.739 130.613 419.567 126.989C426.495 123.263 431.866 118.178 435.681 111.734C439.497 105.189 441.404 97.6873 441.404 89.2292C441.404 80.6704 439.497 73.1688 435.681 66.7246C431.866 60.2803 426.495 55.2457 419.567 51.6208C412.739 47.8952 404.658 46.0323 395.32 46.0323H364.143V132.426Z" fill="black"/>
<path d="M476.996 105.726V0H516.887C525.823 0 533.504 1.46004 539.93 4.38011C546.357 7.19948 551.277 11.3278 554.691 16.7652C558.205 22.1019 559.962 28.5965 559.962 36.249C559.962 43.7002 558.205 50.1445 554.691 55.5818C551.277 60.9185 546.357 65.0469 539.93 67.9669C533.504 70.887 525.823 72.347 516.887 72.347H483.602L488.572 67.0607V105.726H476.996ZM488.572 67.9669L483.602 62.5296H516.586C527.128 62.5296 535.111 60.264 540.533 55.7329C546.055 51.1011 548.817 44.6065 548.817 36.249C548.817 27.7909 546.055 21.246 540.533 16.6142C535.111 11.9823 527.128 9.66643 516.586 9.66643H483.602L488.572 4.38011V67.9669Z" fill="black"/>
<path d="M584.061 142.092V36.366H595.207V142.092H584.061Z" fill="black"/>
<path d="M675.296 141.999C667.364 141.999 660.034 140.69 653.307 138.072C646.579 135.353 640.756 131.577 635.836 126.744C630.916 121.911 627.05 116.221 624.238 109.676C621.527 103.132 620.172 95.9824 620.172 88.2292C620.172 80.4759 621.527 73.3268 624.238 66.7818C627.05 60.2368 630.916 54.5477 635.836 49.7145C640.856 44.8813 646.73 41.1557 653.457 38.5378C660.185 35.8191 667.514 34.4597 675.447 34.4597C683.078 34.4597 690.257 35.7687 696.984 38.3867C703.712 40.904 709.385 44.7303 714.004 49.8656L706.925 56.9644C702.607 52.5339 697.838 49.3621 692.617 47.449C687.395 45.4351 681.773 44.4282 675.748 44.4282C669.422 44.4282 663.548 45.5358 658.126 47.751C652.704 49.8656 647.985 52.9367 643.969 56.9644C639.952 60.8913 636.789 65.5232 634.48 70.8598C632.271 76.0958 631.167 81.8856 631.167 88.2292C631.167 94.5728 632.271 100.413 634.48 105.75C636.789 110.986 639.952 115.617 643.969 119.645C647.985 123.572 652.704 126.643 658.126 128.858C663.548 130.973 669.422 132.03 675.748 132.03C681.773 132.03 687.395 131.023 692.617 129.009C697.838 126.995 702.607 123.773 706.925 119.343L714.004 126.442C709.385 131.577 703.712 135.454 696.984 138.072C690.257 140.69 683.028 141.999 675.296 141.999Z" fill="black"/>
<path d="M747.402 115.812L746.95 102.218L810.81 36.366H823.612L777.073 85.3022L770.747 92.0989L747.402 115.812ZM737.763 142.092V36.366H748.908V142.092H737.763ZM813.521 142.092L768.036 89.5312L775.567 81.3752L826.775 142.092H813.521Z" fill="black"/>
<path d="M854.78 83.6408H910.506V93.1562H854.78V83.6408ZM855.984 132.426H919.393V142.092H844.839V36.366H917.133V46.0323H855.984V132.426Z" fill="black"/>
<path d="M945.591 142.092V36.366H988.515C999.761 36.366 1009.6 38.6315 1018.04 43.1627C1026.57 47.5931 1033.2 53.7857 1037.92 61.7403C1042.64 69.695 1045 78.8579 1045 89.2292C1045 99.6004 1042.64 108.763 1037.92 116.718C1033.2 124.673 1026.57 130.916 1018.04 135.447C1009.6 139.877 999.761 142.092 988.515 142.092H945.591ZM956.736 132.426H987.913C997.251 132.426 1005.33 130.613 1012.16 126.989C1019.09 123.263 1024.46 118.178 1028.28 111.734C1032.09 105.189 1034 97.6873 1034 89.2292C1034 80.6704 1032.09 73.1688 1028.28 66.7246C1024.46 60.2803 1019.09 55.2457 1012.16 51.6208C1005.33 47.8952 997.251 46.0323 987.913 46.0323H956.736V132.426Z" fill="black"/>
<path d="M341.996 217V178H361.379C366.367 178 370.107 178.929 372.601 180.786C375.133 182.643 376.398 185.094 376.398 188.14C376.398 190.183 375.888 191.966 374.868 193.489C373.848 194.974 372.45 196.126 370.674 196.943C368.898 197.76 366.858 198.169 364.553 198.169L365.63 195.884C368.124 195.884 370.334 196.293 372.261 197.11C374.188 197.89 375.681 199.06 376.738 200.62C377.834 202.18 378.382 204.093 378.382 206.359C378.382 209.701 377.041 212.32 374.358 214.214C371.675 216.071 367.727 217 362.513 217H341.996ZM351.121 210.203H361.833C364.213 210.203 366.008 209.831 367.217 209.089C368.464 208.309 369.087 207.083 369.087 205.411C369.087 203.777 368.464 202.57 367.217 201.79C366.008 200.973 364.213 200.564 361.833 200.564H350.441V193.99H360.246C362.475 193.99 364.175 193.619 365.347 192.876C366.556 192.096 367.16 190.926 367.16 189.366C367.16 187.843 366.556 186.71 365.347 185.967C364.175 185.187 362.475 184.797 360.246 184.797H351.121V210.203Z" fill="black"/>
<path d="M423.533 193.711H442.633V200.731H423.533V193.711ZM424.213 209.757H445.807V217H415.088V178H445.07V185.243H424.213V209.757Z" fill="black"/>
<path d="M482.867 217V178H500.04C503.591 178 506.652 178.576 509.221 179.727C511.791 180.841 513.774 182.457 515.172 184.574C516.57 186.691 517.269 189.217 517.269 192.151C517.269 195.049 516.57 197.556 515.172 199.673C513.774 201.753 511.791 203.35 509.221 204.464C506.652 205.579 503.591 206.136 500.04 206.136H487.968L492.048 202.18V217H482.867ZM508.088 217L498.169 202.849H507.974L518.006 217H508.088ZM492.048 203.183L487.968 198.949H499.53C502.363 198.949 504.479 198.354 505.877 197.166C507.275 195.94 507.974 194.269 507.974 192.151C507.974 189.997 507.275 188.326 505.877 187.137C504.479 185.949 502.363 185.354 499.53 185.354H487.968L492.048 181.064V203.183Z" fill="black"/>
<path d="M554.299 217V178H563.48V209.646H583.373V217H554.299Z" fill="black"/>
<path d="M618.258 217V178H627.44V217H618.258Z" fill="black"/>
<path d="M666.61 217V178H674.205L697.612 206.08H693.928V178H702.996V217H695.458L671.994 188.92H675.678V217H666.61Z" fill="black"/>
<rect x="476.996" y="131" width="83" height="11" fill="#F33B1D"/>
</svg>
