<svg width="537" height="321" viewBox="0 0 537 321" fill="none" xmlns="http://www.w3.org/2000/svg">
<path fill-rule="evenodd" clip-rule="evenodd" d="M0.748535 226.011C0.748535 226.255 3.27584 234.992 6.36489 245.425C9.45394 255.859 12.72 266.908 13.6224 269.979C14.5247 273.05 18.2353 285.614 21.8677 297.899L28.4713 320.235L41.0391 320.384L53.6064 320.534L55.3346 313.963C56.2856 310.349 58.8508 300.356 61.0353 291.756C65.4746 274.285 65.4288 274.445 65.8599 274.877C66.0307 275.047 68.739 285.323 71.8777 297.711L77.5845 320.235L90.1205 320.376L102.656 320.518L108.769 299.716C116.578 273.141 116.198 274.43 123.824 248.678C127.383 236.656 130.297 226.542 130.297 226.203C130.297 225.77 126.24 225.586 116.673 225.586H103.051L101.63 231.589C100.849 234.891 98.0486 246.764 95.408 257.973C89.9161 281.282 90.1546 280.44 89.4817 278.913C89.2109 278.299 86.3407 266.615 83.1032 252.948C79.8656 239.281 76.9781 227.533 76.6866 226.843C76.1628 225.603 76.0188 225.586 65.5672 225.586C59.7437 225.586 54.8393 225.812 54.669 226.088C54.3932 226.534 50.0349 244.659 43.9478 270.677C42.7802 275.668 41.6774 279.751 41.4981 279.751C41.3183 279.751 38.2695 267.627 34.7231 252.808L28.2753 225.866L14.5119 225.716C6.94227 225.634 0.748535 225.767 0.748535 226.011ZM131.972 273.05V320.514H167.988H204.005V308.794V297.075L183.205 296.928L162.404 296.782V290.64V284.497L183.205 284.351L204.005 284.205V273.043V261.882H183.065H162.125V255.74V249.597H183.065H204.005V237.592V225.586H167.988H131.972V273.05ZM210.147 273.05V320.514H246.164H282.181V308.787V297.061H261.222H240.264L240.422 290.779L240.58 284.497L261.38 284.351L282.181 284.205V273.043V261.882H261.241H240.301V255.74V249.597H261.241H282.181V237.592V225.586H246.164H210.147V273.05ZM288.323 273.041V320.514H303.4H318.476V309.594V298.675L320.731 295.355C321.971 293.529 323.205 292.036 323.475 292.036C323.744 292.036 327.44 298.443 331.69 306.274L339.416 320.513L391.487 320.513L443.557 320.514V307.391V294.269H422.622H401.686L401.542 260.067L401.398 225.866H386.322H371.245L370.966 272.771C370.723 313.466 370.583 319.491 369.901 318.28C364.731 309.09 341.929 266.681 341.929 266.255C341.929 265.942 348.211 256.934 355.889 246.236C363.567 235.539 369.849 226.516 369.849 226.186C369.849 225.774 365.229 225.586 355.069 225.586H340.289L338.135 228.518C336.95 230.131 332.105 236.978 327.368 243.734L318.756 256.019L318.476 240.942L318.197 225.866L303.26 225.717L288.323 225.568V273.041ZM444.8 226.555C444.943 227.097 451.883 239.853 460.222 254.902L475.384 282.264L475.385 301.389L475.386 320.514H490.463H505.539V301.359V282.203L520.895 254.46C529.341 239.201 536.251 226.459 536.251 226.143C536.251 225.76 531.003 225.618 520.483 225.717L504.715 225.866L497.728 241.062C493.886 249.42 490.596 256.267 490.418 256.278C490.239 256.289 486.972 249.451 483.155 241.082L476.217 225.866L460.378 225.717C445.473 225.577 444.555 225.627 444.8 226.555Z" fill="black"/>
<path fill-rule="evenodd" clip-rule="evenodd" d="M22.3402 0.924746C22.1352 1.12912 21.9677 22.5023 21.9677 48.4209V95.5446L50.5856 95.3374C78.0269 95.1392 79.3983 95.0794 83.9498 93.8867C97.2832 90.3922 105.04 83.4352 106.916 73.288C107.639 69.3792 107.103 63.827 105.621 59.8652C104.045 55.6532 99.3392 50.7628 94.5632 48.3734L90.7488 46.4654L93.5363 44.659C99.2041 40.9864 102.036 35.0724 101.972 27.0427C101.85 11.8235 92.5725 2.60274 75.8631 1.09451C69.4214 0.513217 22.8991 0.365232 22.3402 0.924746ZM119.129 48.0121V95.4798H155.425H191.72V83.7534V72.0271H170.78H149.841V65.8914V59.7558L170.641 59.6095L191.441 59.4632V48.2952V37.1273L170.641 36.981L149.841 36.8347V30.699V24.5634H170.792H191.743L191.592 12.6974L191.441 0.831498L155.285 0.687997L119.129 0.543916V48.0121ZM204.424 0.872822C204.193 1.10623 204.005 22.4878 204.005 48.3885V95.4798H219.361H234.717V78.39V61.2997L241.278 61.5058C248.807 61.742 252.09 62.9018 254.62 66.2198C257.263 69.6846 257.56 71.4559 257.587 83.893L257.611 95.4798H271.93H286.249L285.922 84.1722C285.485 69.0933 283.959 63.6422 278.467 57.5328L275.92 54.7006L278.244 52.4458C283.83 47.0249 286.168 40.8926 286.212 31.5433C286.288 15.7463 279.652 6.40486 265.339 2.16049C261.424 0.999578 259.982 0.934249 233.042 0.697488C217.532 0.560681 204.655 0.639971 204.424 0.872822ZM298.197 0.915817C297.987 1.12522 297.816 22.4878 297.816 48.3885V95.4798H334.112H370.407V82.3641V69.2485L349.607 69.1022L328.807 68.9559L328.528 34.8937L328.248 0.831498L313.413 0.68297C305.254 0.601444 298.407 0.705859 298.197 0.915817ZM382.134 48.0071V95.4798H397.493H412.852L412.709 48.1556L412.566 0.831498L397.35 0.68297L382.134 0.534424V48.0071ZM425.503 0.924746C425.298 1.12912 425.13 22.4878 425.13 48.3885V95.4798H440.486H455.842V73.9486C455.842 62.1066 456.051 52.5463 456.306 52.7038C456.561 52.8618 462.383 62.5506 469.243 74.235L481.717 95.4798H494.748H507.779L507.637 48.1556L507.494 0.831498L492.278 0.68297L477.061 0.534424L477.043 22.4605C477.029 40.5938 476.9 44.2206 476.298 43.4288C475.898 42.9022 470.076 33.0398 463.359 21.5117L451.146 0.5523H438.511C431.561 0.5523 425.707 0.719814 425.503 0.924746ZM52.6795 30.7057V36.8481L60.3575 36.8447C71.5723 36.8403 73.8986 35.8542 73.8986 31.1033C73.8986 25.932 71.12 24.593 60.3575 24.5757L52.6795 24.5634V30.7057ZM234.84 31.6829L234.996 38.8025H243.093C252.731 38.8025 254.747 38.444 257.013 36.3271C258.487 34.9501 258.728 34.3308 258.728 31.9208C258.728 28.4738 257.053 26.1917 253.81 25.22C252.548 24.842 248.026 24.5634 243.151 24.5634H234.683L234.84 31.6829ZM52.6795 65.3263V72.0271H61.8819C69.0713 72.0271 71.5796 71.8289 73.3503 71.1203C76.9832 69.6668 78.3049 65.6379 76.3746 61.9045C74.9255 59.103 72.86 58.6256 62.1902 58.6256H52.6795V65.3263ZM482.374 112.252C462.287 114.544 450.812 122.842 448.518 136.733C447.22 144.59 449.314 151.037 454.981 156.637C460.97 162.555 468.847 165.926 488.136 170.826C500.765 174.034 504.989 175.646 506.397 177.795C507.592 179.618 506.801 181.94 504.539 183.256C500.803 185.427 491.97 186.019 486.444 184.469C482.659 183.407 478.72 180.257 477.027 176.938C476.419 175.747 475.613 174.767 475.235 174.761C474.857 174.755 469.195 176.188 462.651 177.947C448.841 181.657 449.711 180.603 453.758 188.731C458.382 198.017 467.335 204.914 478.457 207.758C487.339 210.03 504.066 209.736 513.109 207.15C528.82 202.657 537.109 192.397 536.077 178.721C535.834 175.496 535.318 173.669 533.761 170.519C529.128 161.146 518.854 155.452 496.605 149.928C482.005 146.304 477.62 144.356 477.62 141.494C477.62 138.093 483.062 135.684 490.742 135.684C499.026 135.684 504.513 138.425 507.198 143.903C507.975 145.489 508.862 146.803 509.169 146.822C510.103 146.88 532.587 140.589 533.102 140.126C533.798 139.499 532.098 134.8 529.684 130.674C522.931 119.136 510.167 112.532 493.534 111.969C489.848 111.845 484.826 111.971 482.374 112.252ZM20.4288 160.673L20.5717 207.997L56.3091 208.141C75.9647 208.221 92.2978 208.191 92.6049 208.074C92.9601 207.938 93.1047 203.567 93.0019 196.07L92.8411 184.278L72.0621 184.132L51.2836 183.986V178.123V172.259L72.0838 172.113L92.8841 171.967V160.812V149.658L72.0838 149.511L51.2836 149.365L51.125 143.362L50.9664 137.36H71.8326C83.3082 137.36 92.8026 137.255 92.9305 137.128C93.0589 137.001 93.0907 131.598 93.0019 125.122L92.8411 113.348H56.5637H20.2864L20.4288 160.673ZM96.7354 120.18C98.1911 123.947 106.386 145.309 114.947 167.653L130.512 208.276L145.621 208.274L160.729 208.271L178.877 161.307C188.859 135.476 197.109 114.119 197.211 113.845C197.317 113.562 190.579 113.348 181.56 113.348H165.723L162.211 122.702C150.325 154.363 145.725 166.376 145.553 166.204C145.384 166.035 137.794 145.636 133.055 132.613C132.161 130.156 130.225 124.879 128.753 120.887L126.077 113.628L110.083 113.48L94.0891 113.332L96.7354 120.18ZM198.421 160.812V208.276H234.717H271.013V196.27V184.265H250.073H229.133V178.123V171.98H250.073H271.013V160.812V149.644H250.073H229.133V143.509V137.373L249.933 137.227L270.734 137.08L270.884 125.214L271.035 113.348H234.728H198.421V160.812ZM276.597 160.821V208.294L291.813 208.145L307.029 207.997L307.18 186.219L307.33 164.442L308.619 166.675C316.821 180.88 332.743 207.53 333.219 207.849C333.557 208.074 339.424 208.263 346.257 208.268L358.681 208.276V160.812V113.348H343.332H327.982L327.836 134.952L327.69 156.556L315.126 134.961L302.562 113.366L289.579 113.357L276.597 113.348V160.821ZM363.707 126.61L363.706 139.872H376.41H389.114L389.258 174.074L389.401 208.276H404.749H420.096L420.24 174.074L420.384 139.872L433.087 139.722L445.791 139.572V126.46V113.348H404.749H363.707V126.61Z" fill="#CC3444"/>
</svg>
